<svg xmlns="http://www.w3.org/2000/svg" xmlns:xlink="http://www.w3.org/1999/xlink" width="180" zoomAndPan="magnify" viewBox="0 0 675 225" height="60" preserveAspectRatio="xMidYMid meet" version="1.0"><defs><g/><clipPath id="44b037e047"><path d="M 68 47 L 149.585938 47 L 149.585938 187 L 68 187 Z M 68 47 " clip-rule="nonzero"/></clipPath><clipPath id="0ac9c82942"><path d="M 24 25.183594 L 125 25.183594 L 125 199.121094 L 24 199.121094 Z M 24 25.183594 " clip-rule="nonzero"/></clipPath></defs><path fill="#ff5757" d="M 12.46875 112.246094 C 12.46875 79.21875 38.375 52.199219 70.925781 50.238281 L 80.359375 37.914062 C 78.46875 37.765625 76.585938 37.621094 74.65625 37.621094 C 33.445312 37.621094 0.03125 71.035156 0.03125 112.246094 C 0.03125 139.554688 14.738281 163.359375 36.621094 176.363281 L 39.863281 163.757812 C 23.34375 152.570312 12.46875 133.648438 12.46875 112.246094 Z M 12.46875 112.246094 " fill-opacity="1" fill-rule="nonzero"/><g clip-path="url(#44b037e047)"><path fill="#ff5757" d="M 112.429688 47.96875 L 109.015625 60.457031 C 125.777344 71.621094 136.847656 90.648438 136.847656 112.246094 C 136.847656 145.269531 110.9375 172.296875 78.390625 174.242188 L 68.949219 186.582031 C 70.84375 186.730469 72.730469 186.875 74.65625 186.875 C 115.871094 186.875 149.285156 153.460938 149.285156 112.246094 C 149.285156 84.835938 134.457031 60.941406 112.429688 47.96875 Z M 112.429688 47.96875 " fill-opacity="1" fill-rule="nonzero"/></g><g clip-path="url(#0ac9c82942)"><path fill="#ff5757" d="M 124.410156 93.589844 L 87.09375 93.589844 L 90.75 80.171875 L 97.742188 54.554688 L 101.027344 42.503906 L 105.75 25.183594 L 94.195312 40.296875 L 85.914062 51.128906 L 65.21875 78.1875 L 24.90625 130.902344 L 62.21875 130.902344 L 58.582031 144.242188 L 51.574219 169.941406 L 48.289062 181.992188 L 43.5625 199.3125 L 55.117188 184.199219 L 63.402344 173.367188 L 84.359375 145.953125 Z M 124.410156 93.589844 " fill-opacity="1" fill-rule="nonzero"/></g><g fill="#000000" fill-opacity="1"><g transform="translate(170.312227, 139.466308)"><g><path d="M 6.015625 -82.734375 L 35.59375 -82.734375 C 43.550781 -82.734375 50.035156 -80.609375 55.046875 -76.359375 C 60.066406 -72.117188 62.578125 -66.050781 62.578125 -58.15625 C 62.578125 -52.070312 61.054688 -46.972656 58.015625 -42.859375 C 54.972656 -38.753906 50.84375 -35.867188 45.625 -34.203125 L 74.109375 0 L 50.140625 0 L 24.875 -32.6875 L 24.875 0 L 6.015625 0 Z M 24.875 -46.03125 L 27.078125 -46.03125 C 28.816406 -46.03125 30.285156 -46.0625 31.484375 -46.125 C 32.691406 -46.195312 34.0625 -46.429688 35.59375 -46.828125 C 37.132812 -47.234375 38.375 -47.800781 39.3125 -48.53125 C 40.25 -49.269531 41.050781 -50.335938 41.71875 -51.734375 C 42.382812 -53.140625 42.71875 -54.847656 42.71875 -56.859375 C 42.71875 -58.867188 42.382812 -60.570312 41.71875 -61.96875 C 41.050781 -63.375 40.25 -64.441406 39.3125 -65.171875 C 38.375 -65.910156 37.132812 -66.476562 35.59375 -66.875 C 34.0625 -67.28125 32.691406 -67.515625 31.484375 -67.578125 C 30.285156 -67.648438 28.816406 -67.6875 27.078125 -67.6875 L 24.875 -67.6875 Z M 24.875 -46.03125 "/></g></g></g><g fill="#000000" fill-opacity="1"><g transform="translate(232.670364, 139.466308)"><g><path d="M 58.0625 -23.265625 L 20.765625 -23.265625 C 20.765625 -19.648438 21.929688 -16.972656 24.265625 -15.234375 C 26.609375 -13.503906 29.148438 -12.640625 31.890625 -12.640625 C 34.765625 -12.640625 37.035156 -13.019531 38.703125 -13.78125 C 40.378906 -14.550781 42.285156 -16.070312 44.421875 -18.34375 L 57.265625 -11.9375 C 51.910156 -2.976562 43.015625 1.5 30.578125 1.5 C 22.828125 1.5 16.175781 -1.15625 10.625 -6.46875 C 5.082031 -11.78125 2.3125 -18.179688 2.3125 -25.671875 C 2.3125 -33.160156 5.082031 -39.578125 10.625 -44.921875 C 16.175781 -50.273438 22.828125 -52.953125 30.578125 -52.953125 C 38.734375 -52.953125 45.367188 -50.59375 50.484375 -45.875 C 55.597656 -41.164062 58.15625 -34.429688 58.15625 -25.671875 C 58.15625 -24.460938 58.125 -23.660156 58.0625 -23.265625 Z M 21.265625 -33.09375 L 40.8125 -33.09375 C 40.414062 -35.769531 39.363281 -37.828125 37.65625 -39.265625 C 35.945312 -40.703125 33.757812 -41.421875 31.09375 -41.421875 C 28.144531 -41.421875 25.800781 -40.648438 24.0625 -39.109375 C 22.320312 -37.566406 21.390625 -35.5625 21.265625 -33.09375 Z M 21.265625 -33.09375 "/></g></g></g><g fill="#000000" fill-opacity="1"><g transform="translate(283.699338, 139.466308)"><g><path d="M 28.375 -52.953125 C 31.320312 -52.953125 34.234375 -52.613281 37.109375 -51.9375 C 39.984375 -51.269531 42.117188 -50.601562 43.515625 -49.9375 L 45.625 -48.9375 L 39.8125 -37.296875 C 35.800781 -39.441406 31.988281 -40.515625 28.375 -40.515625 C 26.375 -40.515625 24.953125 -40.296875 24.109375 -39.859375 C 23.273438 -39.421875 22.859375 -38.601562 22.859375 -37.40625 C 22.859375 -37.132812 22.890625 -36.863281 22.953125 -36.59375 C 23.023438 -36.332031 23.160156 -36.082031 23.359375 -35.84375 C 23.566406 -35.613281 23.753906 -35.414062 23.921875 -35.25 C 24.085938 -35.082031 24.367188 -34.894531 24.765625 -34.6875 C 25.171875 -34.488281 25.488281 -34.335938 25.71875 -34.234375 C 25.957031 -34.140625 26.34375 -33.992188 26.875 -33.796875 C 27.40625 -33.597656 27.804688 -33.445312 28.078125 -33.34375 C 28.347656 -33.238281 28.800781 -33.085938 29.4375 -32.890625 C 30.070312 -32.691406 30.554688 -32.554688 30.890625 -32.484375 C 32.960938 -31.890625 34.765625 -31.222656 36.296875 -30.484375 C 37.835938 -29.742188 39.457031 -28.738281 41.15625 -27.46875 C 42.863281 -26.207031 44.1875 -24.601562 45.125 -22.65625 C 46.0625 -20.71875 46.53125 -18.515625 46.53125 -16.046875 C 46.53125 -4.347656 38.40625 1.5 22.15625 1.5 C 18.476562 1.5 14.984375 0.929688 11.671875 -0.203125 C 8.367188 -1.335938 5.984375 -2.472656 4.515625 -3.609375 L 2.3125 -5.421875 L 9.53125 -17.546875 C 10.0625 -17.078125 10.757812 -16.523438 11.625 -15.890625 C 12.5 -15.253906 14.070312 -14.382812 16.34375 -13.28125 C 18.613281 -12.175781 20.585938 -11.625 22.265625 -11.625 C 25.941406 -11.625 27.78125 -12.863281 27.78125 -15.34375 C 27.78125 -16.476562 27.3125 -17.363281 26.375 -18 C 25.4375 -18.632812 23.847656 -19.351562 21.609375 -20.15625 C 19.367188 -20.957031 17.613281 -21.691406 16.34375 -22.359375 C 13.132812 -24.035156 10.59375 -25.925781 8.71875 -28.03125 C 6.851562 -30.132812 5.921875 -32.925781 5.921875 -36.40625 C 5.921875 -41.613281 7.941406 -45.671875 11.984375 -48.578125 C 16.023438 -51.492188 21.488281 -52.953125 28.375 -52.953125 Z M 28.375 -52.953125 "/></g></g></g><g fill="#000000" fill-opacity="1"><g transform="translate(323.599661, 139.466308)"><g><path d="M 14.4375 -76.609375 C 16.238281 -78.421875 18.410156 -79.328125 20.953125 -79.328125 C 23.492188 -79.328125 25.664062 -78.421875 27.46875 -76.609375 C 29.28125 -74.804688 30.1875 -72.632812 30.1875 -70.09375 C 30.1875 -67.550781 29.28125 -65.378906 27.46875 -63.578125 C 25.664062 -61.773438 23.492188 -60.875 20.953125 -60.875 C 18.410156 -60.875 16.238281 -61.773438 14.4375 -63.578125 C 12.632812 -65.378906 11.734375 -67.550781 11.734375 -70.09375 C 11.734375 -72.632812 12.632812 -74.804688 14.4375 -76.609375 Z M 38.203125 -76.609375 C 40.015625 -78.421875 42.1875 -79.328125 44.71875 -79.328125 C 47.257812 -79.328125 49.429688 -78.421875 51.234375 -76.609375 C 53.046875 -74.804688 53.953125 -72.632812 53.953125 -70.09375 C 53.953125 -67.550781 53.046875 -65.378906 51.234375 -63.578125 C 49.429688 -61.773438 47.257812 -60.875 44.71875 -60.875 C 42.1875 -60.875 40.015625 -61.773438 38.203125 -63.578125 C 36.398438 -65.378906 35.5 -67.550781 35.5 -70.09375 C 35.5 -72.632812 36.398438 -74.804688 38.203125 -76.609375 Z M 5.015625 -51.4375 L 5.015625 -22.65625 C 5.015625 -14.101562 7.234375 -7.9375 11.671875 -4.15625 C 16.117188 -0.382812 23.191406 1.5 32.890625 1.5 C 42.585938 1.5 49.65625 -0.382812 54.09375 -4.15625 C 58.539062 -7.9375 60.765625 -14.101562 60.765625 -22.65625 L 60.765625 -51.4375 L 43.015625 -51.4375 L 43.015625 -26.96875 C 43.015625 -21.894531 42.242188 -18.285156 40.703125 -16.140625 C 39.171875 -14.003906 36.566406 -12.9375 32.890625 -12.9375 C 29.210938 -12.9375 26.601562 -14.003906 25.0625 -16.140625 C 23.53125 -18.285156 22.765625 -21.894531 22.765625 -26.96875 L 22.765625 -51.4375 Z M 5.015625 -51.4375 "/></g></g></g><g fill="#000000" fill-opacity="1"><g transform="translate(379.942335, 139.466308)"><g><path d="M 6.015625 0 L 6.015625 -51.4375 L 23.765625 -51.4375 L 23.765625 -46.03125 L 23.96875 -46.03125 C 28.582031 -50.644531 33.492188 -52.953125 38.703125 -52.953125 C 42.453125 -52.953125 45.960938 -52.179688 49.234375 -50.640625 C 52.515625 -49.097656 54.988281 -46.722656 56.65625 -43.515625 C 61.875 -49.804688 67.554688 -52.953125 73.703125 -52.953125 C 79.191406 -52.953125 83.90625 -51.410156 87.84375 -48.328125 C 91.789062 -45.253906 93.765625 -40.441406 93.765625 -33.890625 L 93.765625 0 L 76.015625 0 L 76.015625 -29.078125 C 76.015625 -31.816406 75.257812 -34.101562 73.75 -35.9375 C 72.25 -37.78125 69.992188 -38.703125 66.984375 -38.703125 C 64.378906 -38.703125 62.390625 -37.914062 61.015625 -36.34375 C 59.648438 -34.78125 58.898438 -32.894531 58.765625 -30.6875 L 58.765625 0 L 41.015625 0 L 41.015625 -29.078125 C 41.015625 -31.816406 40.257812 -34.101562 38.75 -35.9375 C 37.25 -37.78125 34.992188 -38.703125 31.984375 -38.703125 C 29.242188 -38.703125 27.1875 -37.847656 25.8125 -36.140625 C 24.445312 -34.441406 23.765625 -32.421875 23.765625 -30.078125 L 23.765625 0 Z M 6.015625 0 "/></g></g></g><g fill="#000000" fill-opacity="1"><g transform="translate(469.269904, 139.466308)"><g><path d="M 7.71875 -80.125 C 9.789062 -82.195312 12.265625 -83.234375 15.140625 -83.234375 C 18.015625 -83.234375 20.488281 -82.195312 22.5625 -80.125 C 24.632812 -78.050781 25.671875 -75.578125 25.671875 -72.703125 C 25.671875 -69.828125 24.632812 -67.351562 22.5625 -65.28125 C 20.488281 -63.207031 18.015625 -62.171875 15.140625 -62.171875 C 12.265625 -62.171875 9.789062 -63.207031 7.71875 -65.28125 C 5.644531 -67.351562 4.609375 -69.828125 4.609375 -72.703125 C 4.609375 -75.578125 5.644531 -78.050781 7.71875 -80.125 Z M 6.015625 -51.4375 L 6.015625 0 L 23.765625 0 L 23.765625 -51.4375 Z M 6.015625 -51.4375 "/></g></g></g><g fill="#000000" fill-opacity="1"><g transform="translate(490.121187, 139.466308)"><g><path d="M 58.0625 -23.265625 L 20.765625 -23.265625 C 20.765625 -19.648438 21.929688 -16.972656 24.265625 -15.234375 C 26.609375 -13.503906 29.148438 -12.640625 31.890625 -12.640625 C 34.765625 -12.640625 37.035156 -13.019531 38.703125 -13.78125 C 40.378906 -14.550781 42.285156 -16.070312 44.421875 -18.34375 L 57.265625 -11.9375 C 51.910156 -2.976562 43.015625 1.5 30.578125 1.5 C 22.828125 1.5 16.175781 -1.15625 10.625 -6.46875 C 5.082031 -11.78125 2.3125 -18.179688 2.3125 -25.671875 C 2.3125 -33.160156 5.082031 -39.578125 10.625 -44.921875 C 16.175781 -50.273438 22.828125 -52.953125 30.578125 -52.953125 C 38.734375 -52.953125 45.367188 -50.59375 50.484375 -45.875 C 55.597656 -41.164062 58.15625 -34.429688 58.15625 -25.671875 C 58.15625 -24.460938 58.125 -23.660156 58.0625 -23.265625 Z M 21.265625 -33.09375 L 40.8125 -33.09375 C 40.414062 -35.769531 39.363281 -37.828125 37.65625 -39.265625 C 35.945312 -40.703125 33.757812 -41.421875 31.09375 -41.421875 C 28.144531 -41.421875 25.800781 -40.648438 24.0625 -39.109375 C 22.320312 -37.566406 21.390625 -35.5625 21.265625 -33.09375 Z M 21.265625 -33.09375 "/></g></g></g><g fill="#000000" fill-opacity="1"><g transform="translate(541.150161, 139.466308)"><g><path d="M 6.015625 0 L 6.015625 -51.4375 L 23.765625 -51.4375 L 23.765625 -44.03125 L 23.96875 -44.03125 C 24.101562 -44.289062 24.316406 -44.617188 24.609375 -45.015625 C 24.910156 -45.421875 25.5625 -46.125 26.5625 -47.125 C 27.570312 -48.132812 28.644531 -49.039062 29.78125 -49.84375 C 30.914062 -50.644531 32.382812 -51.363281 34.1875 -52 C 36 -52.632812 37.84375 -52.953125 39.71875 -52.953125 C 41.65625 -52.953125 43.554688 -52.679688 45.421875 -52.140625 C 47.296875 -51.609375 48.664062 -51.078125 49.53125 -50.546875 L 50.9375 -49.734375 L 43.515625 -34.703125 C 41.316406 -36.566406 38.242188 -37.5 34.296875 -37.5 C 32.160156 -37.5 30.320312 -37.03125 28.78125 -36.09375 C 27.238281 -35.164062 26.148438 -34.03125 25.515625 -32.6875 C 24.878906 -31.351562 24.425781 -30.21875 24.15625 -29.28125 C 23.894531 -28.34375 23.765625 -27.609375 23.765625 -27.078125 L 23.765625 0 Z M 6.015625 0 "/></g></g></g><g fill="#000000" fill-opacity="1"><g transform="translate(581.652054, 139.466308)"><g><path d="M 58.0625 -23.265625 L 20.765625 -23.265625 C 20.765625 -19.648438 21.929688 -16.972656 24.265625 -15.234375 C 26.609375 -13.503906 29.148438 -12.640625 31.890625 -12.640625 C 34.765625 -12.640625 37.035156 -13.019531 38.703125 -13.78125 C 40.378906 -14.550781 42.285156 -16.070312 44.421875 -18.34375 L 57.265625 -11.9375 C 51.910156 -2.976562 43.015625 1.5 30.578125 1.5 C 22.828125 1.5 16.175781 -1.15625 10.625 -6.46875 C 5.082031 -11.78125 2.3125 -18.179688 2.3125 -25.671875 C 2.3125 -33.160156 5.082031 -39.578125 10.625 -44.921875 C 16.175781 -50.273438 22.828125 -52.953125 30.578125 -52.953125 C 38.734375 -52.953125 45.367188 -50.59375 50.484375 -45.875 C 55.597656 -41.164062 58.15625 -34.429688 58.15625 -25.671875 C 58.15625 -24.460938 58.125 -23.660156 58.0625 -23.265625 Z M 21.265625 -33.09375 L 40.8125 -33.09375 C 40.414062 -35.769531 39.363281 -37.828125 37.65625 -39.265625 C 35.945312 -40.703125 33.757812 -41.421875 31.09375 -41.421875 C 28.144531 -41.421875 25.800781 -40.648438 24.0625 -39.109375 C 22.320312 -37.566406 21.390625 -35.5625 21.265625 -33.09375 Z M 21.265625 -33.09375 "/></g></g></g></svg>